<svg width="20" height="20" viewBox="0 0 20 20" fill="none" xmlns="http://www.w3.org/2000/svg">
<g clip-path="url(#clip0)">
<path fill-rule="evenodd" clip-rule="evenodd" d="M9.9975 -0.000244141H10.0025C15.5162 -0.000244141 20 4.48601 20 9.99976C20 15.5135 15.5162 19.9998 10.0025 19.9998C7.96875 19.9998 6.0825 19.3948 4.50125 18.3473L0.6575 19.576L1.90375 15.861C0.705 14.2148 0 12.1873 0 9.99976C0 4.48476 4.48375 -0.000244141 9.9975 -0.000244141ZM13.8587 15.5322C14.6224 15.3672 15.5799 14.8022 15.8212 14.121C16.0624 13.4385 16.0624 12.8572 15.9924 12.7335C15.9359 12.6353 15.8023 12.5709 15.6027 12.4749C15.5508 12.4499 15.4944 12.4227 15.4337 12.3922C15.1399 12.246 13.7112 11.5397 13.4412 11.446C13.1762 11.346 12.9237 11.381 12.7237 11.6635C12.6856 11.7167 12.6477 11.7701 12.6099 11.8232C12.3687 12.1625 12.1359 12.4899 11.9424 12.6985C11.7662 12.886 11.4787 12.9097 11.2374 12.8097C11.2111 12.7988 11.181 12.7866 11.1472 12.773C10.7652 12.6187 9.918 12.2765 8.89244 11.3635C8.02744 10.5935 7.43994 9.63474 7.26994 9.34724C7.10303 9.05883 7.247 8.88971 7.38006 8.73341C7.38253 8.73051 7.38499 8.72762 7.38744 8.72474C7.47323 8.61859 7.55648 8.53021 7.64015 8.44138C7.70033 8.37748 7.76073 8.31336 7.82244 8.24224C7.83161 8.23167 7.84052 8.22142 7.84921 8.21144C7.98024 8.06078 8.05827 7.97106 8.14619 7.78349C8.24619 7.58974 8.17494 7.38974 8.10369 7.24224C8.05467 7.13894 7.75183 6.40416 7.49186 5.77341C7.38062 5.50352 7.27724 5.25267 7.20494 5.07849C7.01119 4.61474 6.86369 4.59724 6.56994 4.58474C6.56095 4.58429 6.55186 4.58383 6.54268 4.58336C6.44982 4.57866 6.34756 4.57349 6.23494 4.57349C5.85244 4.57349 5.45369 4.68599 5.21244 4.93224C5.20401 4.94085 5.19522 4.94978 5.1861 4.95906C4.87747 5.27295 4.18994 5.97217 4.18994 7.36599C4.18994 8.7625 5.18082 10.114 5.36416 10.3641C5.36921 10.371 5.37365 10.377 5.37744 10.3822C5.38847 10.3967 5.40927 10.4268 5.43953 10.4707C5.81388 11.0128 7.63723 13.6533 10.3562 14.7797C12.6537 15.7322 13.3362 15.6435 13.8587 15.5322Z" fill="white"/>
</g>
<defs>
<clipPath id="clip0">
<rect width="20" height="20" fill="white" transform="translate(0 -0.000244141)"/>
</clipPath>
</defs>
</svg>
